<svg xmlns="http://www.w3.org/2000/svg" version="1.1" xmlns:xlink="http://www.w3.org/1999/xlink" xmlns:svgjs="http://svgjs.dev/svgjs" width="1000" height="1000" viewBox="0 0 1000 1000"><rect width="1000" height="1000" fill="#ffffff"></rect><g transform="matrix(0.7,0,0,0.7,149.5757668046419,455.4810537139707)"><svg viewBox="0 0 396 51" data-background-color="#ffffff" preserveAspectRatio="xMidYMid meet" height="128" width="1000" xmlns="http://www.w3.org/2000/svg" xmlns:xlink="http://www.w3.org/1999/xlink"><g id="tight-bounds" transform="matrix(1,0,0,1,0.23999481307862425,-0.15997477022887097)"><svg viewBox="0 0 395.52 51.319949540457735" height="51.319949540457735" width="395.52"><g><svg viewBox="0 0 395.52 51.319949540457735" height="51.319949540457735" width="395.52"><g><svg viewBox="0 0 395.52 51.319949540457735" height="51.319949540457735" width="395.52"><g><svg viewBox="0 0 395.52 51.319949540457735" height="51.319949540457735" width="395.52"><g><svg viewBox="0 0 395.52 51.319949540457735" height="51.319949540457735" width="395.52"><g transform="matrix(1,0,0,1,0,0)"><svg width="395.52" viewBox="0.8500000238418579 -35.5 277.42999267578125 36" height="51.319949540457735" data-palette-color="#471aa0"><path d="M37.15-33.5L5.85-33.5 5.85-35 39.3-35 26.55 0.05 20.05-17.75 13.6 0.05 0.85-35 2.45-35 13.6-4.35 20.05-22.15 26.55-4.35 37.15-33.5ZM46 0L46-1.5 64.4-1.5 53.8-30.65 42.65 0 41.05 0 53.8-35.05 66.55 0 46 0ZM68.2-35L93.2-35 93.2-33.5 81.45-33.5 81.45 0 79.95 0 79.95-33.5 68.2-33.5 68.2-35ZM119.24-7.05L120.59-6.4Q119.24-3.1 116.79-1.3 114.34 0.5 109.44 0.5L109.44 0.5Q103.29 0.5 100.54-3.28 97.79-7.05 97.79-15.05L97.79-15.05 97.79-19.95Q97.79-27.95 100.54-31.73 103.29-35.5 109.44-35.5L109.44-35.5Q114.34-35.5 116.79-33.7 119.24-31.9 120.59-28.6L120.59-28.6 119.24-27.95Q118.09-30.85 115.99-32.43 113.89-34 109.44-34L109.44-34Q106.99-34 105.24-33.38 103.49-32.75 102.09-31.25 100.69-29.75 99.99-26.93 99.29-24.1 99.29-19.95L99.29-19.95 99.29-15.05Q99.29-10.9 99.99-8.08 100.69-5.25 102.09-3.75 103.49-2.25 105.24-1.63 106.99-1 109.44-1L109.44-1Q113.89-1 115.99-2.58 118.09-4.15 119.24-7.05L119.24-7.05ZM149.24-35L149.24 0 147.74 0 147.74-17.5 129.74-17.5 129.74 0 128.24 0 128.24-35 129.74-35 129.74-19 147.74-19 147.74-35 149.24-35ZM191.34-33.5L160.04-33.5 160.04-35 193.49-35 180.74 0.05 174.24-17.75 167.79 0.05 155.04-35 156.64-35 167.79-4.35 174.24-22.15 180.74-4.35 191.34-33.5ZM220.29-35L220.29 0 218.79 0 218.79-17.5 200.79-17.5 200.79 0 199.29 0 199.29-35 200.79-35 200.79-19 218.79-19 218.79-35 220.29-35ZM231.08 0L231.08-1.5 249.48-1.5 238.88-30.65 227.73 0 226.13 0 238.88-35.05 251.63 0 231.08 0ZM253.28-35L278.28-35 278.28-33.5 266.53-33.5 266.53 0 265.03 0 265.03-33.5 253.28-33.5 253.28-35Z" opacity="1" transform="matrix(1,0,0,1,0,0)" fill="#471aa0" class="undefined-text-0" data-fill-palette-color="primary" id="text-0"></path></svg></g></svg></g></svg></g></svg></g><g></g></svg></g><defs></defs></svg><rect width="395.52" height="51.319949540457735" fill="none" stroke="none" visibility="hidden"></rect></g></svg></g></svg>